<mxfile host="app.diagrams.net" modified="2023-08-27T17:42:08.266Z" agent="Mozilla/5.0 (Windows NT 10.0; Win64; x64) AppleWebKit/537.36 (KHTML, like Gecko) Chrome/116.0.0.0 Safari/537.36" version="21.6.5" etag="dub6on3F-e6nz5qkfAwy" type="github">
  <diagram name="Trang-1" id="zrm_6lPt3dZlo4rqE3jA">
    <mxGraphModel>
      <root>
        <mxCell id="0" />
        <mxCell id="1" parent="0" />
      </root>
    </mxGraphModel>
  </diagram>
</mxfile>
